<?xml version="1.0" encoding="utf-8"?>
<!-- Generator: Adobe Illustrator 25.2.0, SVG Export Plug-In . SVG Version: 6.00 Build 0)  -->
<svg version="1.1" id="Layer_1" xmlns="http://www.w3.org/2000/svg" xmlns:xlink="http://www.w3.org/1999/xlink" x="0px" y="0px"
	 viewBox="0 0 1200 1200" style="enable-background:new 0 0 1200 1200;" xml:space="preserve">
<style type="text/css">
	.st0{fill-rule:evenodd;clip-rule:evenodd;fill:#F7BA95;}
	.st1{fill-rule:evenodd;clip-rule:evenodd;fill:#4D408D;}
	.st2{fill-rule:evenodd;clip-rule:evenodd;fill:#EDEDED;}
	.st3{fill-rule:evenodd;clip-rule:evenodd;fill:#C6C6C6;}
	.st4{fill-rule:evenodd;clip-rule:evenodd;fill:#FFCC00;}
	.st5{fill-rule:evenodd;clip-rule:evenodd;fill:#3E2823;}
	.st6{fill-rule:evenodd;clip-rule:evenodd;fill:#B3B1B1;}
	.st7{fill-rule:evenodd;clip-rule:evenodd;fill:#614438;}
	.st8{fill-rule:evenodd;clip-rule:evenodd;fill:#F7C8AB;}
	.st9{fill-rule:evenodd;clip-rule:evenodd;fill:#2F2F2E;}
	.st10{fill-rule:evenodd;clip-rule:evenodd;fill:#F9CB11;}
	.st11{fill-rule:evenodd;clip-rule:evenodd;fill:#E5B902;}
	.st12{fill-rule:evenodd;clip-rule:evenodd;fill:#484B98;}
	.st13{fill-rule:evenodd;clip-rule:evenodd;fill:#FFFFFF;}
	.st14{fill-rule:evenodd;clip-rule:evenodd;fill:#372621;}
	.st15{fill-rule:evenodd;clip-rule:evenodd;fill:#616365;}
	.st16{fill-rule:evenodd;clip-rule:evenodd;fill:#E5E7EF;}
	.st17{fill-rule:evenodd;clip-rule:evenodd;fill:#E30613;}
	.st18{fill:#FFFFFF;stroke:#000000;stroke-miterlimit:10;}
</style>
<polygon class="st0" points="641.7,790 640,810.9 668.4,812.6 670.8,793.8 "/>
<path class="st1" d="M640.6,804.3c-9.4,3-9.7,26.4-4,33.2c0,0,0.1,0.1,0.1,0.1l97.2-4.9c1.9-4.6-0.8-17.4-10.9-22.8
	c-8.5-4.6-33.4-5.9-53.3-6.2l-0.4,0.7c0,0-7.7,4.5-17.3,3.7C642.7,807.4,640.6,804.4,640.6,804.3"/>
<path class="st2" d="M708.9,834l25-1.3c1.9-4.6,3-16.5-7.1-22c-2.5-1.4-10.3-3.3-15.1-4.1c-3.3,5.2-5.1,11.5-4.7,18.1
	C707.2,828,707.8,831.1,708.9,834"/>
<path class="st2" d="M633.8,831.1c0.6,2.7,1.6,4.9,2.8,6.4c0,0,0.1,0.1,0.1,0.1l97.2-4.9c0.6-1.5,0.7-3.9,0.3-6.7L633.8,831.1z"/>
<path class="st1" d="M498.2,569.9c0,0-3.8,52.5,16.7,66.9c20.5,14.4,132.3,4.8,142.3,2.7c0,0-7.3,23.1-11.6,67.2
	c-4.4,44.1-7,84.2-7,84.2c6.4,5.8,26.6,8.5,36.1,4.8c0,0,35.9-151.9,33.9-174.4c-2.1-22.5-14.9-29.9-41.4-32.5
	c-26.4-2.6-115-11.7-115-11.7L498.2,569.9z"/>
<path class="st2" d="M718,428.3c-4.8-0.9-10.2,7.7-12,19.3c-1.9,11.6,0.5,21.7,5.3,22.7c4.8,0.9,10.2-7.7,12-19.3
	C725.1,439.4,722.8,429.3,718,428.3"/>
<path class="st3" d="M711.6,470.4c4.7,0.4,9.8-8.1,11.7-19.4c1.6-9.7,0.2-18.4-3.1-21.5c-4.7-0.4-9.8,8.1-11.7,19.4
	C706.9,458.6,708.3,467.3,711.6,470.4"/>
<path class="st3" d="M714.6,449.3c0,0,17.9,9.8,19.6,14.6c1.7,4.9,3.9,29,3.1,30.5c-0.8,1.5-3.4,0.3-4.1,0.2
	c-0.7-0.1-0.7-19.7-2.8-26.8c-2.1-7.1-17.5-14.8-17.5-14.8L714.6,449.3z"/>
<path class="st4" d="M771.1,479c0.2,0,0.4,0.1,0.6,0.1c10.1,18.9,11.9,41.9,3.1,63.2c-1,2.4-2.1,4.7-3.3,7
	C800.4,544.6,794.6,482.6,771.1,479"/>
<path class="st5" d="M350.2,805.2c-22.9,0-41.5,18.6-41.5,41.5c0,22.9,18.6,41.5,41.5,41.5c22.9,0,41.5-18.6,41.5-41.5
	C391.6,823.8,373.1,805.2,350.2,805.2 M350.2,763.3c-46,0-83.4,37.3-83.4,83.4c0,46,37.3,83.4,83.4,83.4c46,0,83.4-37.3,83.4-83.4
	C433.5,800.7,396.2,763.3,350.2,763.3z"/>
<path class="st6" d="M386.8,827.2l-16.8,5.5c-3.1-4.3-7.5-7.6-12.7-9.2v-17.6C370.1,808,380.9,816.1,386.8,827.2 M380,875.5
	l-10.4-14.3c3-4,4.8-9.1,4.8-14.5l0-0.6l16.8-5.4c0.3,2,0.4,4,0.4,6.1C391.6,857.9,387.2,868,380,875.5z M331.8,883.9l10.4-14.3
	c2.5,0.9,5.2,1.4,8,1.4c2.8,0,5.5-0.5,8-1.4l10.4,14.3c-5.5,2.7-11.8,4.3-18.4,4.3C343.6,888.1,337.3,886.6,331.8,883.9z
	 M309.2,840.6l16.8,5.4l0,0.6c0,5.4,1.8,10.5,4.8,14.5l-10.4,14.3c-7.2-7.5-11.7-17.6-11.7-28.8
	C308.7,844.6,308.9,842.6,309.2,840.6z M343.1,805.8v17.6c-5.2,1.6-9.6,4.9-12.7,9.2l-16.8-5.5C319.5,816.1,330.3,808,343.1,805.8z
	 M350.2,792c-30.2,0-54.7,24.5-54.7,54.7c0,30.2,24.5,54.7,54.7,54.7c30.2,0,54.7-24.5,54.7-54.7C404.9,816.5,380.4,792,350.2,792z"
	/>
<path class="st7" d="M350.2,837.4c-5.2,0-9.3,4.2-9.3,9.3c0,5.2,4.2,9.3,9.3,9.3c5.2,0,9.3-4.2,9.3-9.3
	C359.5,841.5,355.3,837.4,350.2,837.4"/>
<path class="st5" d="M876.6,805.2c-22.9,0-41.5,18.6-41.5,41.5c0,22.9,18.6,41.5,41.5,41.5c22.9,0,41.5-18.6,41.5-41.5
	C918.1,823.8,899.5,805.2,876.6,805.2 M876.6,763.3c-46,0-83.4,37.3-83.4,83.4c0,46,37.3,83.4,83.4,83.4c46,0,83.4-37.3,83.4-83.4
	C960,800.7,922.7,763.3,876.6,763.3z"/>
<path class="st6" d="M913.2,827.2l-16.8,5.5c-3.1-4.3-7.5-7.6-12.7-9.2v-17.6C896.5,808,907.3,816.1,913.2,827.2 M906.5,875.5
	l-10.4-14.3c3-4,4.8-9.1,4.8-14.5l0-0.6l16.8-5.4c0.3,2,0.4,4,0.4,6.1C918.1,857.9,913.7,868,906.5,875.5z M858.3,883.9l10.4-14.3
	c2.5,0.9,5.2,1.4,8,1.4c2.8,0,5.5-0.5,8-1.4l10.4,14.3c-5.5,2.7-11.8,4.3-18.4,4.3C870,888.1,863.8,886.6,858.3,883.9z M835.6,840.6
	l16.8,5.4l0,0.6c0,5.4,1.8,10.5,4.8,14.5l-10.4,14.3c-7.2-7.5-11.7-17.6-11.7-28.8C835.2,844.6,835.3,842.6,835.6,840.6z
	 M869.6,805.8v17.6c-5.2,1.6-9.6,4.9-12.7,9.2l-16.8-5.5C846,816.1,856.8,808,869.6,805.8z M876.6,792c-30.2,0-54.7,24.5-54.7,54.7
	c0,30.2,24.5,54.7,54.7,54.7c30.2,0,54.7-24.5,54.7-54.7C931.3,816.5,906.8,792,876.6,792z"/>
<path class="st7" d="M876.6,837.4c-5.2,0-9.3,4.2-9.3,9.3c0,5.2,4.2,9.3,9.3,9.3c5.2,0,9.3-4.2,9.3-9.3
	C886,841.5,881.8,837.4,876.6,837.4"/>
<path class="st4" d="M321.6,694h-36.1c0,0-12.8,24.7-10.1,31.1c2.7,6.4,14.7,5.8,14.7,5.8L321.6,694z"/>
<path class="st6" d="M344.3,688h-45.6c0,0-20.5,31.2-20.6,43.5c-0.1,12.3,13,13,13,13L344.3,688z"/>
<path class="st8" d="M564.5,368.2L550,393.1c0.3-0.1,27.2,21.5,29.2,22l13-30.7L564.5,368.2z"/>
<path class="st8" d="M648.2,318.6c2.5,57.1-12.9,88.7-82.4,60.2l5.4-45.8l23.7-19.5L648.2,318.6z"/>
<path class="st9" d="M669.9,299.9c-21.6,18.7-75.5-37.8-92.9-8.5c0,0-18.4,4.9-25.1,21.9c-6.7,17,8.6,64.9,8.6,64.9l19.7-18.9
	c-14.7-14.7,6.3-27.2,11.8-9.5l10.1-22.1C623.9,336.1,670.4,337.9,669.9,299.9"/>
<path class="st9" d="M589.4,372.9c2.9,8.8,6.5,16.8,18.2,18.1c0,0-2.5,2.2-5.6,2.1c-8.2-0.3-15.7-6.2-17.7-15.1L589.4,372.9z"/>
<path class="st10" d="M653.6,303.3c-44.6,0.5-59.2,22.2-58.1,61.2c0.4,14.8-4.6,15.3-18,14.2C531.4,375,504.6,295,559.6,263
	C606.1,235.9,661.6,271.3,653.6,303.3"/>
<path class="st11" d="M653.6,303.3c-44.6,0.5-59.2,22.2-58.1,61.2c0.4,14.8-4.6,15.3-18,14.2c-5.9-0.5-11.4-2.2-16.5-4.9
	c10.2,1.5,21.5,2.2,25.9-1.7c8.6-7.6-1.8-37.2,19.2-59.5c14.1-15.1,35.7-15.4,48.3-14C654.3,300.2,654,301.8,653.6,303.3"/>
<path class="st9" d="M575.6,330c7.4,0,13.3,6,13.3,13.4c0,7.4-6,13.3-13.4,13.3c-7.4,0-13.3-6-13.3-13.4
	C562.3,336,568.3,330,575.6,330"/>
<path class="st0" d="M721.6,511.1c0,0-15.7-1.6-31.5,0.9c-15.7,2.5-82-16.5-88.6-18.5c-6.6-1.9-22.9-42.4-22.9-42.4l-27.7,15.6
	c0,0,25.8,40.9,36.4,47.2c10.6,6.4,84.9,14.8,93.8,15.6c8.9,0.7,39.6-4.1,39.6-4.1L721.6,511.1z"/>
<path class="st10" d="M717.8,584.4c0,0-23.8-43.3-25.2-56.4c-1.4-13.1,40.8-25.9,40.8-25.9l28.4,61L737,588.6L717.8,584.4z"/>
<path class="st5" d="M293.2,757.9c0,0-11.3,16.3-29.8,43.6C245,828.8,240,840.8,240,840.8s9.6,6,29.1-13.8
	c19.5-19.9,64.9-47.9,64.9-47.9L293.2,757.9z"/>
<path class="st10" d="M837.4,726.6c37.6-3.5,99.1,24.1,117.1,66.7c-94.1-13.8-101.8,4.8-155.7,41.5c-17.7,12.1-38,5.3-38,5.3
	L837.4,726.6z"/>
<path class="st11" d="M837.4,726.6c11.2-1,24.6,0.7,38.2,4.7c-8.4,5.1-16.4,12.7-20.2,23.6c-4.4,12.6-6,30.3-6.5,45.8
	c-15,8-29,19.6-50.2,34c-17.7,12.1-38,5.3-38,5.3L837.4,726.6z"/>
<path class="st5" d="M761.8,563.1l-44,21.3c0,0-3.9,7.1,2.8,24.1c6.7,17,23.1,46.5,27.7,81.9c4.6,35.5,4.6,120.3-36.5,121.7
	c-41.1,1.4-97.6,1.4-97.6,1.4s-11.9-0.9-20.5-5.6c-8.7-4.8-11.7-11.8-11.7-11.8L434,756.4l-171.3,1.8l0.7,18.1
	c0,0,56.4,14.2,104.6,23.8c48.2,9.6,63.1,12.1,63.1,12.1l4.2,15.7c0,0,99,25.8,193.7,29.3c94.7,3.5,123.8-7.1,123.8-7.1
	s45.1-30.9,59.2-81.9c14.2-51.1,26.6-67.8,4.3-111.7C794.1,612.4,761.8,563.1,761.8,563.1"/>
<polygon class="st8" points="621.6,791.1 618.8,812 647.1,815.1 650.4,796.4 "/>
<path class="st12" d="M619.7,805.3c-9.6,2.5-11,25.9-5.7,33c0,0,0.1,0.1,0.1,0.1h97.3c2.1-4.5,0.1-17.4-9.7-23.4
	c-8.2-5-33.1-7.6-52.9-8.8l-0.4,0.7c0,0-7.9,4.1-17.4,2.9C621.7,808.6,619.8,805.4,619.7,805.3"/>
<path class="st13" d="M686.5,838.5h25c2.1-4.5,3.8-16.4-5.9-22.4c-2.4-1.5-10.1-3.8-14.9-4.9c-3.6,5-5.6,11.2-5.6,17.8
	C685,832.4,685.5,835.5,686.5,838.5"/>
<path class="st13" d="M611.6,831.8c0.5,2.7,1.3,5,2.5,6.5c0,0,0.1,0.1,0.1,0.1h97.3c0.7-1.5,0.9-3.9,0.6-6.6H611.6z"/>
<path class="st10" d="M761.8,563.1c0,0-8.5,12.1,0.7,32.6c9.2,20.6,59.7,94.4,46.9,134.2c-12.8,39.8-35.6,107.8-78.2,121.2
	c-42.6,13.5-232.7-10.6-232.7-10.6s-7.8,36.9,44.7,37.6c52.5,0.7,183,11.4,220.6-15.6c37.6-27,100-134.1,97.9-156.8
	C859.7,683,761.8,563.1,761.8,563.1"/>
<path class="st11" d="M500.9,858.3c4.4,9.5,15.5,19.4,42.4,19.8c45.3,0.6,148.5,8.6,200.2-6.5C678.9,877.1,565.3,871.2,500.9,858.3"
	/>
<path class="st10" d="M600.1,683.7H325.5c-12.7,3-56.1,45.9-62.8,74.5c57.9,14.6,242.8,42.2,319.3,38
	C539.6,746.5,600.7,716.7,600.1,683.7"/>
<path class="st11" d="M523.3,795.1c5.7,0.4,11.3,0.7,16.7,0.9c3.5-9.3,5.4-18.8,5.4-28.2c0-57.8-70.1-92.4-156.6-77.3
	c-42,7.4-80.1,25.1-108.2,48c26-18.7,59.1-33,95.1-39.3c83.3-14.6,150.8,18.7,150.8,74.4C526.6,780.8,525.4,788,523.3,795.1"/>
<path class="st10" d="M457.4,457.8H298.7c-24,0-43.6,19.6-43.6,43.6v132.2c0,24,19.6,43.6,43.6,43.6h158.7V457.8z"/>
<rect x="450.3" y="457.8" class="st11" width="7.1" height="219.5"/>
<path class="st11" d="M457.4,457.8H298.7c-8,0-15.6,2.2-22.1,6h180.7V457.8z"/>
<path class="st11" d="M267.5,664.1c7.9,8.1,19,13.2,31.2,13.2h158.7v-13.2H267.5z"/>
<rect x="255.1" y="513.4" class="st11" width="202.3" height="7.9"/>
<rect x="325.5" y="673.4" class="st10" width="274.6" height="10.3"/>
<rect x="325.5" y="680.8" class="st11" width="274.6" height="2.8"/>
<path class="st5" d="M600.1,673.4H467.3v-34.8c0-7.2,5.9-13.6,13.1-13.1l95.7,6.4c13.1,0.9,23.9,10.8,23.9,23.9V673.4z"/>
<path class="st14" d="M479.9,625.5c0.2,0,0.4,0,0.6,0l95.7,6.4c13.1,0.9,23.9,10.8,23.9,23.9v2.8c-10.9,3.4-22.4,5.2-34.4,5.2
	C531.6,663.8,501,649,479.9,625.5"/>
<path class="st15" d="M349.7,821.5c-13.4,0.5-24.2,11.6-24.2,25.2c0,13.6,10.7,24.6,24.2,25.2v0l117.6,4.7c0.8,0.1,1.6,0.1,2.4,0.1
	c16.6,0,30-13.4,30-30c0-16.6-13.4-30-30-30h0c-0.8,0-1.6,0-2.4,0.1L349.7,821.5L349.7,821.5z"/>
<path class="st12" d="M489.3,564.1c0,0-6.4,52.2,13.3,67.6c19.7,15.4,131.9,11.4,142,9.8c0,0-8.4,22.7-15,66.6
	c-6.6,43.8-11.2,83.7-11.2,83.7c6.1,6.1,26.2,9.9,35.8,6.6c0,0,43.5-149.9,42.6-172.5c-0.9-22.5-13.4-30.6-39.7-34.5
	c-26.3-3.9-114.3-17.4-114.3-17.4L489.3,564.1z"/>
<path class="st16" d="M773.5,476.8c-3.1-1.2-6.2-1.9-9.3-2.3c0.2,0,0.5,0.1,0.7,0.1c11.9,20.6,14.8,46.1,5.8,70.1
	c-1,2.7-2.2,5.4-3.5,7.9c4-0.8,7.8-2.2,11.4-4.1c0.1-0.2,0.2-0.4,0.3-0.7c8.9-23.6,7.3-48.5-2.3-69.7
	C775.5,477.7,774.5,477.2,773.5,476.8"/>
<path class="st10" d="M764.9,474.7c-17.9-2.5-35.7,7.6-42.4,25.2c-7.7,20.4,2.6,43.3,23.1,51c7.2,2.7,14.6,3.2,21.6,1.8
	c1.3-2.5,2.4-5.2,3.5-7.9C779.7,520.8,776.8,495.2,764.9,474.7"/>
<path class="st11" d="M720.9,505.5c-4.1,18.9,6.1,38.4,24.7,45.4c7.2,2.7,14.6,3.2,21.6,1.8c1.3-2.5,2.4-5.2,3.5-7.9
	c3-8.1,4.7-16.3,5.2-24.5c-10.9-0.5-22.5-2-33.4-5.4C734.2,512.4,727.1,509.1,720.9,505.5"/>
<path class="st5" d="M713.2,531.3c-1.1,0-2.2,0.2-3.1,0.6l0,0c-0.3,0.1-0.7,0.3-1,0.5l-24.3,12.3l7.3,15.8l24.8-12.6v0
	c3-1.4,5-4.4,5-7.9C721.9,535.2,718,531.3,713.2,531.3"/>
<path class="st10" d="M540.8,384.7c-10.4,10.3-29.5,32.7-35.6,63.7c-8.5,43.4-30.8,136-30.8,136s25.4,6.8,61.4,6.7
	c36,0,45.7-16.2,45.7-16.2s7.4-79.1,11-115.8c3.6-36.7-12-51.8-12-51.8l-27.2-23.9C546.5,377.4,547.8,377.8,540.8,384.7"/>
<path class="st11" d="M544.4,380.8l-7.4,5.3c13.5,11.3,43.2,28.4,58,46.5c0,0,4.2-15.8-7.2-26.4c-8.6-7.9-26.8-19.6-35.4-24.9
	C547.8,378.4,548.5,377.8,544.4,380.8"/>
<path class="st8" d="M585.5,496.7c2.1,1.6,80.9,32.3,93.7,32.2c11-0.1,12.8-1.7,18.5-0.7c5.8,1,11.7,1.1,20.2,6.6
	c8.4,5.5,5.7,13.3,4.8,13.6c-1,0.3-0.9-3.5-3.4-6.8c-2.5-3.3-11.7-5.2-11.7-5.2s7.1,2.1,9.1,6.3c2.1,4.2,0.4,12.9-1.2,12.8
	c-1.6-0.2-0.5-5.5-1.7-8.2c-1.3-2.6-8.9-7.6-8.9-7.6s5.9,5.1,6.5,9.8c0.6,4.6-2.7,10.4-3.8,9.1c-1.1-1.3,0.7-8-0.4-10.8
	c-1.1-2.8-6.2-4.3-6.2-4.3s4,1.9,4.8,5.4c0.8,3.4-0.1,8.6-1.3,10.4c-1.2,1.8-0.9-4-3.1-8.2c-2.1-4.2-9.1-5.2-9.1-5.2s-5.3-0.5-8.3,3
	c-3,3.5-8,3.8-12.6-0.2c-4.6-4.1-13.3-7.2-19.2-8.4c-5.9-1.3-72.4-11.2-81.5-16.1c-9-4.9-29.5-48.9-29.5-48.9l30.7-10.8L585.5,496.7
	z"/>
<path class="st5" d="M689.1,543.6c-4.8,0-8.7,3.9-8.7,8.7c0,4.8,3.9,8.7,8.7,8.7c4.8,0,8.7-3.9,8.7-8.7
	C697.8,547.5,693.9,543.6,689.1,543.6"/>
<path class="st11" d="M552.8,413.7c-39.5-3.2-16.8,74.4-13.8,82.3l45.1-12.8C582.5,465.4,574.8,415.5,552.8,413.7"/>
<path class="st11" d="M325.1,720.1c59.5-26.9,158.1-29.8,178.4,22.3C469.5,696.5,354.4,713.4,325.1,720.1"/>
<path class="st11" d="M939.1,779.9c-25.1-23.3-46-34.3-71-42.5C901.4,741.9,926.9,762.5,939.1,779.9"/>
<path class="st17" d="M825.4,666.9L825.4,666.9c-4,2.3-5.4,7.4-3.1,11.4l12.8,22.5c2.3,4,7.4,5.4,11.4,3.1h0c4-2.3,5.4-7.4,3.1-11.4
	l-12.8-22.5C834.5,666.1,829.4,664.7,825.4,666.9"/>
<path class="st2" d="M691.7,460.2c-7,0-13.5,9.6-14.6,21.5c-1.1,11.9,3.6,21.5,10.5,21.5c7,0,13.5-9.6,14.6-21.5
	C703.4,469.8,698.7,460.2,691.7,460.2"/>
<path class="st3" d="M688.1,503.1c6.8-0.5,13-9.9,14.1-21.4c0.9-9.9-2.2-18.3-7.4-20.7c-6.8,0.5-13,9.9-14.1,21.4
	C679.8,492.3,683,500.6,688.1,503.1"/>
<path class="st3" d="M689.7,481.6c0,0,19,7.3,21.4,11.9c2.3,4.6,7.7,28.2,7.1,29.8c-0.6,1.5-3.4,0.7-4,0.7c-0.7,0-3.3-19.5-6.3-26.2
	c-3-6.7-19.3-12.4-19.3-12.4L689.7,481.6z"/>
<rect x="-534" y="925" class="st18" width="260" height="250"/>
</svg>
